<svg xmlns="http://www.w3.org/2000/svg" xmlns:xlink="http://www.w3.org/1999/xlink" width="1920" zoomAndPan="magnify" viewBox="0 0 1440 809.999993" height="1080" preserveAspectRatio="xMidYMid meet" version="1.0"><defs><clipPath id="5ebfdbfd4d"><path d="M 630 315.226562 L 810 315.226562 L 810 494.476562 L 630 494.476562 Z M 630 315.226562 " clip-rule="nonzero"/></clipPath></defs><path fill="#feffff" d="M 618 297 L 822 297 L 822 513 L 618 513 Z M 618 297 " fill-opacity="1" fill-rule="nonzero"/><g clipPath="url(#5ebfdbfd4d)"><path fill="#000000" d="M 806.199219 435.09375 C 804.316406 435.09375 802.785156 433.570312 802.785156 431.6875 L 802.785156 327.195312 L 744.871094 385.019531 C 743.535156 386.347656 741.375 386.347656 740.042969 385.019531 C 738.710938 383.6875 738.710938 381.53125 740.042969 380.199219 L 803.785156 316.5625 C 804.761719 315.589844 806.226562 315.296875 807.503906 315.824219 C 808.777344 316.351562 809.609375 317.59375 809.609375 318.972656 L 809.609375 431.6875 C 809.609375 433.570312 808.082031 435.09375 806.199219 435.09375 Z M 633.820312 494.476562 C 631.9375 494.476562 630.40625 492.949219 630.40625 491.070312 L 630.40625 372.308594 C 630.40625 370.929688 631.238281 369.6875 632.515625 369.160156 C 633.789062 368.632812 635.257812 368.925781 636.234375 369.898438 L 695.710938 429.28125 C 697.042969 430.609375 697.042969 432.765625 695.710938 434.097656 C 694.378906 435.425781 692.21875 435.425781 690.882812 434.097656 L 637.230469 380.53125 L 637.230469 491.070312 C 637.230469 492.949219 635.703125 494.476562 633.820312 494.476562 Z M 806.199219 494.476562 C 805.324219 494.476562 804.453125 494.140625 803.785156 493.476562 L 631.40625 321.378906 C 630.074219 320.050781 630.074219 317.894531 631.40625 316.5625 C 632.738281 315.230469 634.898438 315.230469 636.234375 316.5625 L 808.609375 488.660156 C 809.945312 489.988281 809.945312 492.148438 808.609375 493.476562 C 807.945312 494.140625 807.070312 494.476562 806.199219 494.476562 " fill-opacity="1" fill-rule="nonzero"/></g></svg>